<?xml version="1.0" encoding="UTF-8" standalone="no"?>
<svg
   xmlns:dc="http://purl.org/dc/elements/1.1/"
   xmlns:cc="http://creativecommons.org/ns#"
   xmlns:rdf="http://www.w3.org/1999/02/22-rdf-syntax-ns#"
   xmlns:svg="http://www.w3.org/2000/svg"
   xmlns="http://www.w3.org/2000/svg"
   xmlns:sodipodi="http://sodipodi.sourceforge.net/DTD/sodipodi-0.dtd"
   xmlns:inkscape="http://www.inkscape.org/namespaces/inkscape"
   sodipodi:docname="generic_plant.svg"
   inkscape:version="1.0 (4035a4fb49, 2020-05-01)"
   id="svg8"
   version="1.1"
   viewBox="0 0 135.46666 135.46666"
   height="135.46666mm"
   width="135.46666mm">
  <defs
     id="defs2" />
  <sodipodi:namedview
     inkscape:window-maximized="1"
     inkscape:window-y="-8"
     inkscape:window-x="-8"
     inkscape:window-height="1017"
     inkscape:window-width="1920"
     showgrid="false"
     inkscape:document-rotation="0"
     inkscape:current-layer="layer1"
     inkscape:document-units="mm"
     inkscape:cy="262.09502"
     inkscape:cx="360.31955"
     inkscape:zoom="1.3629885"
     inkscape:pageshadow="2"
     inkscape:pageopacity="0.0"
     borderopacity="1.0"
     bordercolor="#666666"
     pagecolor="#ffffff"
     id="base" />
  <metadata
     id="metadata5">
    <rdf:RDF>
      <cc:Work
         rdf:about="">
        <dc:format>image/svg+xml</dc:format>
        <dc:type
           rdf:resource="http://purl.org/dc/dcmitype/StillImage" />
        <dc:title></dc:title>
      </cc:Work>
    </rdf:RDF>
  </metadata>
  <g
     transform="translate(-67.374191,-14.573551)"
     id="layer1"
     inkscape:groupmode="layer"
     inkscape:label="Layer 1">
    <path
       id="path871"
       d="m 132.98569,122.65584 c -0.005,-18.10829 -0.12322,-21.26371 -0.92644,-24.738543 -0.0841,-0.363802 0.20651,-0.0066 0.64579,0.79375 0.92305,1.681773 2.00123,4.853853 2.27753,6.700623 0.10505,0.70216 0.27967,1.17841 0.38804,1.05833 0.10837,-0.12008 0.56738,-1.34942 1.02002,-2.73187 0.91908,-2.80702 1.86064,-5.278236 1.87952,-4.932981 0.007,0.124515 -0.159,0.898421 -0.36844,1.719791 -0.79743,3.12714 -0.94211,6.75788 -0.94211,23.64182 v 17.00991 h -1.98437 -1.98438 l -0.005,-18.52083 z M 99.521064,111.03381 C 90.705448,108.75406 83.233245,101.71063 77.606396,90.376672 75.954714,87.049749 73.696265,81.431867 73.347453,79.782568 l -0.170149,-0.804521 2.720839,-1.012478 C 88.240061,73.3729 100.92179,73.165802 109.90161,77.41028 c 3.33887,1.578176 5.88099,3.395189 8.79857,6.288891 5.91589,5.867471 8.81939,11.629017 9.76519,19.377499 0.47317,3.87644 0.51801,3.71483 -1.28302,4.62399 -4.23594,2.13829 -14.54222,3.98433 -22.10504,3.95941 -2.43957,-0.008 -3.72657,-0.1531 -5.556246,-0.62626 z m 58.472916,0.21881 c -6.33355,-0.7218 -12.03725,-2.07591 -14.96129,-3.55196 -1.80103,-0.90916 -1.75618,-0.74755 -1.28302,-4.62399 0.9458,-7.748482 3.8493,-13.510028 9.76519,-19.377499 6.51554,-6.462204 13.80806,-9.333957 23.67703,-9.323879 6.51876,0.0067 12.39376,1.119873 19.2573,3.648932 l 2.58855,0.953823 -0.17015,0.804521 c -0.34581,1.635112 -2.60828,7.256568 -4.26381,10.594104 -5.6583,11.407088 -13.11902,18.414168 -22.00684,20.668748 -2.91682,0.73991 -7.29671,0.81192 -12.60296,0.2072 z m -25.3189,-24.934185 c -4.35736,-3.34287 -12.84681,-15.76766 -14.58639,-21.348022 -3.03454,-9.73443 -0.25646,-20.465226 8.22137,-31.756344 2.40919,-3.208658 8.32317,-9.644685 8.86237,-9.644685 0.43298,0 4.84519,4.421432 7.11604,7.130918 5.35017,6.383593 9.00881,13.516751 10.45597,20.385747 0.58933,2.79731 0.65412,9.07529 0.12151,11.773958 -0.86744,4.395107 -3.11204,10.031796 -5.40837,13.581559 -1.41444,2.186498 -4.35878,5.355886 -6.72401,7.237957 -1.63642,1.302142 -5.76471,3.919024 -6.18249,3.919024 -0.11407,0 -0.95827,-0.57605 -1.876,-1.280112 z"
       style="fill:#575756;fill-opacity:1;stroke:none;stroke-width:0.264583" />
  </g>
</svg>
