<?xml version="1.0" encoding="UTF-8" standalone="no"?>
<svg
   xmlns:dc="http://purl.org/dc/elements/1.1/"
   xmlns:cc="http://creativecommons.org/ns#"
   xmlns:rdf="http://www.w3.org/1999/02/22-rdf-syntax-ns#"
   xmlns:svg="http://www.w3.org/2000/svg"
   xmlns="http://www.w3.org/2000/svg"
   xmlns:sodipodi="http://sodipodi.sourceforge.net/DTD/sodipodi-0.dtd"
   xmlns:inkscape="http://www.inkscape.org/namespaces/inkscape"
   sodipodi:docname="genus.svg"
   inkscape:version="1.0 (4035a4fb49, 2020-05-01)"
   id="svg8"
   version="1.1"
   viewBox="0 0 648.96575 97.877047"
   height="97.877045mm"
   width="648.96576mm">
  <defs
     id="defs2" />
  <sodipodi:namedview
     inkscape:window-maximized="1"
     inkscape:window-y="-8"
     inkscape:window-x="-8"
     inkscape:window-height="1017"
     inkscape:window-width="1920"
     showgrid="false"
     inkscape:document-rotation="0"
     inkscape:current-layer="layer1"
     inkscape:document-units="mm"
     inkscape:cy="-176.41948"
     inkscape:cx="999.46253"
     inkscape:zoom="0.23457482"
     inkscape:pageshadow="2"
     inkscape:pageopacity="0.0"
     borderopacity="1.0"
     bordercolor="#666666"
     pagecolor="#ffffff"
     id="base" />
  <metadata
     id="metadata5">
    <rdf:RDF>
      <cc:Work
         rdf:about="">
        <dc:format>image/svg+xml</dc:format>
        <dc:type
           rdf:resource="http://purl.org/dc/dcmitype/StillImage" />
        <dc:title />
      </cc:Work>
    </rdf:RDF>
  </metadata>
  <g
     transform="translate(231.47638,-400.48503)"
     id="layer1"
     inkscape:groupmode="layer"
     inkscape:label="Layer 1">
    <path
       sodipodi:nodetypes="csccccccccccccccsccccccscccscccccccccscccsccsccscccccccccsccsscccsscccccssccsccccscscccccccccsccccccccccsscccsscccss"
       transform="matrix(0.26458333,0,0,0.26458333,-208.86964,168.80415)"
       d="m 1617.5215,879.42383 c 0,0 -33.7383,2.13052 -33.7383,41.27539 v 135.05668 c -6.0715,243.3165 235.5485,198.8301 268.0234,129.164 -97.4649,46.0416 -218.6753,-9.9247 -216.0605,-126.9824 V 879.42383 Z m 218.9902,0 c 0,0 -33.7383,2.13052 -33.7383,41.27539 0.3236,58.55158 -0.1046,123.96188 -0.9882,177.15818 0,20.7143 -9.1426,35 -9.1426,35 65.2452,-3.7806 62.0937,-105.3574 62.0937,-105.3574 v -148.07617 0 z m -554.7832,0.0957 c 0,0 -33.7383,2.13052 -33.7383,41.27539 v 87.90238 c 16.7845,27.6176 39.9141,65.7692 49.961,82.3418 v -39.0059 -172.51367 z m -231.2168,0.85352 c 0,0 -33.7383,2.13052 -33.7383,41.27539 v 87.90236 41.1543 l -0.3418,0.2832 v 143.9258 c 0,46.5456 43.8809,44.9824 43.8809,44.9824 h 1.4922 c 33.316,-3.5328 34.3281,-32.0078 34.3281,-32.0078 v -11.4414 c -33.5162,-8.1267 -29.3965,-46.9688 -29.3965,-46.9688 v -96.5918 -172.51365 z m -523.37693,1.08398 c 0,0 -33.73829,2.13052 -33.73829,41.27539 v 87.90238 41.1543 l -0.34375,0.2832 v 143.9257 c 0,46.5457 43.88086,42.9825 43.88086,42.9825 h 49.16602 141.23828 c 33.58896,0 33.27539,-25.7383 33.27539,-25.7383 v -14.2246 H 586.09961 c -47.88893,0 -42.74219,-48.4551 -42.74219,-48.4551 v -57.5859 -39.0059 -172.51367 z m 1634.70903,4.94922 c 0,0 -64.1641,19.19442 -66.6895,87.88477 -1.9863,75.62748 45.8639,112.39558 135.8848,119.70308 37.3756,-1.0101 62.6304,21.7173 61.1152,40.9102 0,0 50.5083,-1.0091 49.498,-40.9102 -1.01,-39.901 -61.1152,-41.4179 -61.1152,-41.4179 0,0 -195.7199,-9.6373 -118.6933,-166.16995 z m 105.6757,13.50391 c -6.5921,-0.003 -12.9628,1.00898 -18.8027,3.41601 -37.3757,15.40483 -34.8496,39.39649 -34.8496,39.39649 79.7135,-9.23263 93.5709,71.94374 136.623,9.09179 0,0 8.5816,-13.59826 -5.3027,-22.22265 0,0 -42.0705,-29.66479 -77.668,-29.68164 z M 156.4707,888.97461 c -3.00876,0 -6.06399,0.1984 -9.15625,0.52344 -25.83779,2.71442 -57.647111,15.97013 -80.779294,51.57812 0,0 68.184984,-32.57595 125.763674,25.50781 l 43.94336,-0.75781 0.2539,-46.7207 c 0,0 -34.89198,-30.13086 -80.02343,-30.13086 z m 454.78907,19.65625 v 45.96094 h 117.23828 c 34.36004,0 33.27539,-29.73828 33.27539,-29.73828 v -16.22266 z m -625.168621,21.13217 c -71.322803,43.28785 -87.370799,139.35137 -43.417166,223.36497 54.3493171,103.884 230.560537,123.2468 291.318057,21.7997 -99.25068,41.8422 -161.924392,21.6341 -202.412089,-11.8398 C -70.01764,1079.0903 -13.908851,929.76303 -13.908851,929.76303 Z M 1136.8125,957.16211 v 117.67969 l 76.498,128.7539 c 27.0217,43.4366 72.9395,34.9746 72.9395,34.9746 29.7997,-3.5625 39.4629,-40.1777 39.4629,-40.1777 -34.6428,7.8571 -54.8223,-21.3125 -54.8223,-21.3125 z m -991.30859,53.62309 c -10.18063,0.2247 -33.43242,12.0985 -33.25977,39.8925 0.25247,40.6587 38.63867,41.418 38.63867,41.418 h 36.11328 l 0.50586,17.6777 c 0,0 29.79989,-3.2831 48.74024,-25.2539 v -32.3261 l -48.74024,0.2539 c 0,0 -35.35675,-0.2536 -35.60937,-39.1446 0,0 -0.62235,-0.049 -1.71289,-0.061 0,-1.67 -1.82521,-2.52 -4.67578,-2.457 z m 466.25976,43.5605 v 41.9609 h 107.23828 c 33.58904,0 33.27344,-25.7382 33.27344,-25.7382 v -16.2227 z m 1504.68163,73.0293 c -9.8243,0 -16.2938,5.1209 -20.5527,9.3066 -8.6613,8.5126 -8.1797,25.4258 -8.1797,25.4258 -0.3262,74.8925 212.7943,115.6405 270.1933,19.7559 -55.9236,25.2282 -157.427,25.8979 -210.4335,-30.0176 -15.9929,-20.4895 -12.6324,-24.4707 -31.0274,-24.4707 z"
       style="fill:#000000;fill-opacity:1;stroke:#000000;stroke-width:7.55906;stroke-linecap:butt;stroke-linejoin:miter;stroke-miterlimit:4;stroke-dasharray:none;stroke-opacity:1"
       id="path879" />
  </g>
</svg>
